<svg xmlns="http://www.w3.org/2000/svg" version="1.1" xmlns:xlink="http://www.w3.org/1999/xlink" xmlns:svgjs="http://svgjs.dev/svgjs" width="1000" height="616" viewBox="0 0 1000 616"><g transform="matrix(1,0,0,1,-0.6060270167825479,0.008426637601530729)"><svg viewBox="0 0 396 244" data-background-color="#ffffff" preserveAspectRatio="xMidYMid meet" height="616" width="1000" xmlns="http://www.w3.org/2000/svg" xmlns:xlink="http://www.w3.org/1999/xlink"><g id="tight-bounds" transform="matrix(1,0,0,1,0.24011885256084042,-0.0033378239850208047)"><svg viewBox="0 0 395.52 244.00667564797004" height="244.00667564797004" width="395.52"><g><svg viewBox="0 0 395.52 244.00667564797004" height="244.00667564797004" width="395.52"><g transform="matrix(1,0,0,1,0,181.5529973801411)"><svg viewBox="0 0 395.52 62.45367826782894" height="62.45367826782894" width="395.52"><g id="textblocktransform"><svg viewBox="0 0 395.52 62.45367826782894" height="62.45367826782894" width="395.52" id="textblock"><g><svg viewBox="0 0 395.52 62.45367826782894" height="62.45367826782894" width="395.52"><g transform="matrix(1,0,0,1,0,0)"><svg width="395.52" viewBox="1.8451389444500002 -26.5 231.13486105554998 36.5" height="62.45367826782894" data-palette-color="#4f46e5"><path d="M2.25-4.1L2.25-4.1Q1.8-4.75 1.85-5.48 1.9-6.2 2.7-6.75L2.7-6.75Q3.2-7.1 3.88-7.05 4.55-7 5.1-6.4L5.1-6.4Q6.5-4.75 8.3-3.78 10.1-2.8 12.7-2.8L12.7-2.8Q13.9-2.85 15.1-3.2 16.3-3.55 17.13-4.42 17.95-5.3 17.95-6.75L17.95-6.75Q17.95-8.15 17.1-8.97 16.25-9.8 14.9-10.33 13.55-10.85 11.95-11.25L11.95-11.25Q10.3-11.7 8.7-12.28 7.1-12.85 5.83-13.73 4.55-14.6 3.78-15.93 3-17.25 3-19.15L3-19.15Q3-21.4 4.23-23.05 5.45-24.7 7.53-25.6 9.6-26.5 12.05-26.5L12.05-26.5Q13.45-26.5 14.98-26.18 16.5-25.85 17.95-25.08 19.4-24.3 20.5-22.95L20.5-22.95Q20.95-22.45 21-21.7 21.05-20.95 20.35-20.35L20.35-20.35Q19.8-19.95 19.13-20 18.45-20.05 18-20.5L18-20.5Q16.95-21.75 15.38-22.43 13.8-23.1 11.9-23.1L11.9-23.1Q10.7-23.1 9.55-22.75 8.4-22.4 7.63-21.58 6.85-20.75 6.85-19.3L6.85-19.3Q6.9-17.95 7.75-17.1 8.6-16.25 10.05-15.73 11.5-15.2 13.25-14.7L13.25-14.7Q14.85-14.3 16.32-13.78 17.8-13.25 19-12.4 20.2-11.55 20.9-10.23 21.6-8.9 21.6-6.9L21.6-6.9Q21.6-4.6 20.3-2.93 19-1.25 16.88-0.38 14.75 0.5 12.3 0.5L12.3 0.5Q9.55 0.5 6.88-0.55 4.2-1.6 2.25-4.1ZM38.65-26.5L38.65-26.5Q41.2-26.5 43.25-25.95 45.3-25.4 46.5-24.45 47.7-23.5 47.7-22.3L47.7-22.3Q47.7-21.65 47.27-21.05 46.85-20.45 46.05-20.45L46.05-20.45Q45.4-20.45 44.97-20.7 44.55-20.95 44.17-21.35 43.8-21.75 43.15-22.05L43.15-22.05Q42.55-22.4 41.4-22.6 40.25-22.8 39.05-22.8L39.05-22.8Q36.35-22.8 34.25-21.5 32.15-20.2 30.97-18 29.8-15.8 29.8-13L29.8-13Q29.8-10.2 30.95-8 32.1-5.8 34.15-4.5 36.2-3.2 38.9-3.2L38.9-3.2Q40.65-3.2 41.67-3.5 42.7-3.8 43.45-4.2L43.45-4.2Q44.3-4.7 44.77-5.2 45.25-5.7 46.1-5.7L46.1-5.7Q46.95-5.7 47.4-5.15 47.85-4.6 47.85-3.8L47.85-3.8Q47.85-2.9 46.6-1.9 45.35-0.9 43.22-0.2 41.1 0.5 38.45 0.5L38.45 0.5Q34.65 0.5 31.8-1.28 28.95-3.05 27.37-6.13 25.8-9.2 25.8-13L25.8-13Q25.8-16.8 27.42-19.85 29.05-22.9 31.95-24.7 34.85-26.5 38.65-26.5ZM55.1 0L55.1 0Q54.25 0 53.67-0.6 53.1-1.2 53.1-2.05L53.1-2.05 53.1-23.85Q53.1-24.7 53.67-25.28 54.25-25.85 55.1-25.85L55.1-25.85Q56-25.85 56.55-25.28 57.1-24.7 57.1-23.85L57.1-23.85 57.1-17.25 56.5-18.3Q56.8-19.85 57.57-21.33 58.35-22.8 59.55-23.98 60.75-25.15 62.3-25.83 63.85-26.5 65.7-26.5L65.7-26.5Q66.8-26.5 67.72-25.98 68.65-25.45 68.65-24.5L68.65-24.5Q68.65-23.45 68.1-22.95 67.55-22.45 66.85-22.45L66.85-22.45Q66.2-22.45 65.6-22.73 65-23 64.1-23L64.1-23Q62.85-23 61.62-22.33 60.4-21.65 59.37-20.4 58.35-19.15 57.72-17.57 57.1-16 57.1-14.2L57.1-14.2 57.1-2.05Q57.1-1.2 56.52-0.6 55.95 0 55.1 0ZM93.59-26.1L93.59-26.1Q94.49-26.1 95.04-25.53 95.59-24.95 95.59-24.1L95.59-24.1 95.59-2.05Q95.59-1.2 95.02-0.6 94.44 0 93.59 0L93.59 0Q92.74 0 92.17-0.6 91.59-1.2 91.59-2.05L91.59-2.05 91.59-6.8 92.54-6.9Q92.54-5.8 91.79-4.5 91.04-3.2 89.74-2.08 88.44-0.95 86.69-0.23 84.94 0.5 82.89 0.5L82.89 0.5Q79.49 0.5 76.77-1.28 74.04-3.05 72.49-6.1 70.94-9.15 70.94-13.05L70.94-13.05Q70.94-17 72.52-20.03 74.09-23.05 76.77-24.78 79.44-26.5 82.79-26.5L82.79-26.5Q84.94-26.5 86.79-25.8 88.64-25.1 90.02-23.9 91.39-22.7 92.14-21.25 92.89-19.8 92.89-18.35L92.89-18.35 91.59-18.65 91.59-24.1Q91.59-24.95 92.17-25.53 92.74-26.1 93.59-26.1ZM83.29-3.2L83.29-3.2Q85.79-3.2 87.72-4.5 89.64-5.8 90.74-8.03 91.84-10.25 91.84-13.05L91.84-13.05Q91.84-15.8 90.74-18.03 89.64-20.25 87.72-21.53 85.79-22.8 83.29-22.8L83.29-22.8Q80.84-22.8 78.92-21.55 76.99-20.3 75.89-18.1 74.79-15.9 74.79-13.05L74.79-13.05Q74.79-10.25 75.89-8.03 76.99-5.8 78.92-4.5 80.84-3.2 83.29-3.2ZM115.74-26.25L115.74-26.25Q119.14-26.25 121.84-24.55 124.54-22.85 126.12-19.85 127.69-16.85 127.69-12.95L127.69-12.95Q127.69-9.1 126.12-6.08 124.54-3.05 121.87-1.33 119.19 0.4 115.84 0.4L115.84 0.4Q113.99 0.4 112.37-0.18 110.74-0.75 109.42-1.68 108.09-2.6 107.19-3.78 106.29-4.95 105.89-6.1L105.89-6.1 106.99-6.8 106.99 7.95Q106.99 8.8 106.44 9.4 105.89 10 104.99 10L104.99 10Q104.14 10 103.57 9.43 102.99 8.85 102.99 7.95L102.99 7.95 102.99-24Q102.99-24.85 103.57-25.43 104.14-26 104.99-26L104.99-26Q105.89-26 106.44-25.43 106.99-24.85 106.99-24L106.99-24 106.99-19.55 106.24-19.95Q106.59-21.2 107.47-22.35 108.34-23.5 109.62-24.38 110.89-25.25 112.47-25.75 114.04-26.25 115.74-26.25ZM115.29-22.55L115.29-22.55Q112.79-22.55 110.87-21.3 108.94-20.05 107.87-17.9 106.79-15.75 106.79-12.95L106.79-12.95Q106.79-10.2 107.87-8 108.94-5.8 110.87-4.55 112.79-3.3 115.29-3.3L115.29-3.3Q117.79-3.3 119.69-4.55 121.59-5.8 122.69-8 123.79-10.2 123.79-12.95L123.79-12.95Q123.79-15.75 122.69-17.9 121.59-20.05 119.69-21.3 117.79-22.55 115.29-22.55ZM145.14 0.5L145.14 0.5Q141.14 0.5 138.14-1.2 135.14-2.9 133.49-5.88 131.84-8.85 131.84-12.75L131.84-12.75Q131.84-17.1 133.56-20.18 135.29-23.25 138.04-24.88 140.79-26.5 143.89-26.5L143.89-26.5Q146.24-26.5 148.36-25.65 150.49-24.8 152.16-23.18 153.84-21.55 154.84-19.28 155.84-17 155.89-14.2L155.89-14.2Q155.84-13.4 155.24-12.85 154.64-12.3 153.84-12.3L153.84-12.3 134.09-12.3 133.19-15.75 152.44-15.75 151.64-15.05 151.64-16.15Q151.49-18.2 150.31-19.68 149.14-21.15 147.44-21.95 145.74-22.75 143.89-22.75L143.89-22.75Q142.39-22.75 140.91-22.23 139.44-21.7 138.26-20.53 137.09-19.35 136.39-17.5 135.69-15.65 135.69-13.05L135.69-13.05Q135.69-10.15 136.86-7.95 138.04-5.75 140.14-4.48 142.24-3.2 144.99-3.2L144.99-3.2Q146.79-3.2 148.09-3.65 149.39-4.1 150.31-4.78 151.24-5.45 151.89-6.15L151.89-6.15Q152.54-6.6 153.19-6.6L153.19-6.6Q153.89-6.6 154.39-6.1 154.89-5.6 154.89-4.9L154.89-4.9Q154.89-4.05 154.09-3.4L154.09-3.4Q152.64-1.85 150.26-0.68 147.89 0.5 145.14 0.5ZM163.63 0L163.63 0Q162.78 0 162.21-0.6 161.63-1.2 161.63-2.05L161.63-2.05 161.63-23.85Q161.63-24.7 162.21-25.28 162.78-25.85 163.63-25.85L163.63-25.85Q164.53-25.85 165.09-25.28 165.63-24.7 165.63-23.85L165.63-23.85 165.63-17.25 165.03-18.3Q165.34-19.85 166.11-21.33 166.88-22.8 168.09-23.98 169.28-25.15 170.84-25.83 172.38-26.5 174.24-26.5L174.24-26.5Q175.34-26.5 176.26-25.98 177.19-25.45 177.19-24.5L177.19-24.5Q177.19-23.45 176.63-22.95 176.09-22.45 175.38-22.45L175.38-22.45Q174.74-22.45 174.13-22.73 173.53-23 172.63-23L172.63-23Q171.38-23 170.16-22.33 168.94-21.65 167.91-20.4 166.88-19.15 166.26-17.57 165.63-16 165.63-14.2L165.63-14.2 165.63-2.05Q165.63-1.2 165.06-0.6 164.49 0 163.63 0ZM202.68-11.6L182.18-11.6Q181.33-11.6 180.78-12.15 180.23-12.7 180.23-13.5L180.23-13.5Q180.23-14.3 180.78-14.83 181.33-15.35 182.18-15.35L182.18-15.35 202.68-15.35Q203.53-15.35 204.08-14.8 204.63-14.25 204.63-13.45L204.63-13.45Q204.63-12.65 204.08-12.13 203.53-11.6 202.68-11.6L202.68-11.6ZM192.38-1.15L192.38-1.15Q191.48-1.15 190.86-1.75 190.23-2.35 190.23-3.25L190.23-3.25 190.23-23.9Q190.23-24.85 190.86-25.45 191.48-26.05 192.43-26.05L192.43-26.05Q193.38-26.05 193.96-25.45 194.53-24.85 194.53-23.9L194.53-23.9 194.53-3.3Q194.53-2.35 193.93-1.75 193.33-1.15 192.38-1.15ZM231.03-11.6L210.53-11.6Q209.68-11.6 209.13-12.15 208.58-12.7 208.58-13.5L208.58-13.5Q208.58-14.3 209.13-14.83 209.68-15.35 210.53-15.35L210.53-15.35 231.03-15.35Q231.88-15.35 232.43-14.8 232.98-14.25 232.98-13.45L232.98-13.45Q232.98-12.65 232.43-12.13 231.88-11.6 231.03-11.6L231.03-11.6ZM220.73-1.15L220.73-1.15Q219.83-1.15 219.21-1.75 218.58-2.35 218.58-3.25L218.58-3.25 218.58-23.9Q218.58-24.85 219.21-25.45 219.83-26.05 220.78-26.05L220.78-26.05Q221.73-26.05 222.31-25.45 222.88-24.85 222.88-23.9L222.88-23.9 222.88-3.3Q222.88-2.35 222.28-1.75 221.68-1.15 220.73-1.15Z" opacity="1" transform="matrix(1,0,0,1,0,0)" fill="#4f46e5" class="wordmark-text-0" data-fill-palette-color="primary" id="text-0"></path></svg></g></svg></g></svg></g></svg></g><g transform="matrix(1,0,0,1,121.72731586068542,0)"><svg viewBox="0 0 152.06536827862914 152.06536827862914" height="152.06536827862914" width="152.06536827862914"><g><svg></svg></g><g id="icon-0"><svg viewBox="0 0 152.06536827862914 152.06536827862914" height="152.06536827862914" width="152.06536827862914"><g><path d="M0 76.033c0-41.992 34.041-76.033 76.033-76.033 41.992 0 76.033 34.041 76.032 76.033 0 41.992-34.041 76.033-76.032 76.032-41.992 0-76.033-34.041-76.033-76.032zM76.033 146.433c38.881 0 70.401-31.519 70.4-70.4 0-38.881-31.519-70.401-70.4-70.401-38.881 0-70.401 31.519-70.401 70.401 0 38.881 31.519 70.401 70.401 70.4z" data-fill-palette-color="accent" fill="#4f46e5" stroke="transparent"></path><ellipse rx="75.27235729792142" ry="75.27235729792142" cx="76.03268413931457" cy="76.03268413931457" fill="#4f46e5" stroke="transparent" stroke-width="0" fill-opacity="1" data-fill-palette-color="accent"></ellipse></g><g transform="matrix(1,0,0,1,32.032709771050946,57.37257310867993)"><svg viewBox="0 0 87.99994873652724 37.320222061269284" height="37.320222061269284" width="87.99994873652724"><g><svg xmlns:dc="http://purl.org/dc/elements/1.1/" xmlns:cc="http://creativecommons.org/ns#" xmlns:rdf="http://www.w3.org/1999/02/22-rdf-syntax-ns#" xmlns:svg="http://www.w3.org/2000/svg" xmlns="http://www.w3.org/2000/svg" xmlns:sodipodi="http://sodipodi.sourceforge.net/DTD/sodipodi-0.dtd" xmlns:inkscape="http://www.inkscape.org/namespaces/inkscape" version="1.1" x="0" y="0" viewBox="1.9991111111111113 10.0625 28.000888888888888 11.875" enable-background="new 0 0 32 32" xml:space="preserve" height="37.320222061269284" width="87.99994873652724" class="icon-cg-0" data-fill-palette-color="quaternary" id="cg-0"><path d="M30 10.063C24.742 10.063 19.576 11.41 15 14L3.063 13.094C2.511 13.052 2.042 13.45 2 14c-0.002 0.026 0 0.068 0 0.094l0 3.812c0 0.552 0.447 1 1 1 0.025 0 0.037 0.002 0.063 0L15 18c4.576 2.59 9.742 3.938 15 3.938l0-11.876z m-1 0.999l0 9.875C24.26 20.776 19.629 19.46 15.5 17.125l0-2.25C19.629 12.539 24.26 11.223 29 11.063zM5 15c0.553 0 1 0.448 1 1 0 0.552-0.448 1-1 1-0.553 0-1-0.448-1-1 0-0.552 0.448-1 1-1z m6 0c0.553 0 1 0.448 1 1 0 0.552-0.447 1-1 1-0.553 0-1-0.448-1-1 0-0.552 0.447-1 1-1z" fill="#ffffff" data-fill-palette-color="quaternary"></path></svg></g></svg></g></svg></g></svg></g><g></g></svg></g><defs></defs></svg><rect width="395.52" height="244.00667564797004" fill="none" stroke="none" visibility="hidden"></rect></g></svg></g></svg>